# xmcd CD database file
#
# Track frame offsets:
#	150
#	6418
#	33112
#	53373
#	75768
#	111268
#	141975
#	162204
#	181617
#	203772
#	227088
#	251135
#	275965
#	294456
#
# Disc length: 4338 seconds
#
# Revision: 8
# Processed by: cddbd v1.4PL0 Copyright (c) Steve Scherf et al.
# Submitted via: CDex 1.50Beta7
#
DISCID=b710f00e
DTITLE=Groove Collective - We The People
DYEAR=1996
DGENRE=Jazz
TTITLE0=Jay Wrestles With The Bari Constructor Pt1
TTITLE1=Losaida
TTITLE2=Lift Off
TTITLE3=Everybody (We The People)
TTITLE4=Fly
TTITLE5=Sneaky
TTITLE6=I Am
TTITLE7=Caterpillar 
TTITLE8=Hide It 
TTITLE9=Anthem 
TTITLE10=Sedate
TTITLE11=Jay Wrestles The Bari Constructor Pt 2
TTITLE12=NightWaves
TTITLE13=She's So Heavy Aka I Want You
EXTD=YEAR: 1996
EXTT0=
EXTT1=
EXTT2=
EXTT3=
EXTT4=
EXTT5=
EXTT6=
EXTT7=
EXTT8=
EXTT9=
EXTT10=
EXTT11=
EXTT12=
EXTT13=
PLAYORDER=
